<svg xmlns="http://www.w3.org/2000/svg" width="1200" height="630" viewBox="0 0 1200 630">
  <defs>
    <linearGradient id="bg" x1="0" y1="0" x2="1" y2="1">
      <stop offset="0%" stop-color="#001314" />
      <stop offset="50%" stop-color="#062029" />
      <stop offset="100%" stop-color="#0B0D10" />
    </linearGradient>
    <radialGradient id="glowA" cx="22%" cy="35%" r="40%">
      <stop offset="0%" stop-color="#4EFFFF" stop-opacity="0.45" />
      <stop offset="100%" stop-color="#4EFFFF" stop-opacity="0" />
    </radialGradient>
    <radialGradient id="glowB" cx="80%" cy="70%" r="45%">
      <stop offset="0%" stop-color="#5865F2" stop-opacity="0.45" />
      <stop offset="100%" stop-color="#5865F2" stop-opacity="0" />
    </radialGradient>
    <linearGradient id="title" x1="0" x2="1" y1="0" y2="0">
      <stop offset="0%" stop-color="#4EFFFF" />
      <stop offset="100%" stop-color="#5865F2" />
    </linearGradient>
  </defs>
  <rect width="1200" height="630" fill="url(#bg)" />
  <rect width="1200" height="630" fill="url(#glowA)" />
  <rect width="1200" height="630" fill="url(#glowB)" />
  <g opacity="0.3">
    <circle cx="120" cy="80" r="2" fill="#fff" />
    <circle cx="980" cy="120" r="1.5" fill="#fff" />
    <circle cx="320" cy="540" r="2" fill="#4EFFFF" />
    <circle cx="1080" cy="500" r="1.5" fill="#fff" />
    <circle cx="600" cy="60" r="1.5" fill="#fff" />
    <circle cx="220" cy="220" r="1" fill="#fff" />
    <circle cx="900" cy="380" r="2" fill="#5865F2" />
  </g>
  <g transform="translate(80, 200)">
    <rect x="0" y="0" width="120" height="120" rx="32" fill="url(#title)" />
    <text x="60" y="92" font-family="Poppins, sans-serif" font-size="80" font-weight="900" text-anchor="middle" fill="#001314">影</text>
  </g>
  <text x="240" y="278" font-family="Poppins, sans-serif" font-size="76" font-weight="900" fill="url(#title)">Shadow Garden</text>
  <text x="240" y="334" font-family="Poppins, sans-serif" font-size="32" font-weight="500" fill="#A8B4BD">Anime cards · Pokémon · RPG · WhatsApp synced</text>
  <g transform="translate(80, 460)">
    <rect width="320" height="80" rx="40" fill="#4EFFFF" />
    <text x="160" y="52" font-family="Poppins, sans-serif" font-size="28" font-weight="700" text-anchor="middle" fill="#001314">Sign up free →</text>
  </g>
  <g transform="translate(420, 460)">
    <rect width="280" height="80" rx="40" fill="#0B0D10" stroke="#4EFFFF" stroke-width="2" />
    <text x="140" y="52" font-family="Poppins, sans-serif" font-size="26" font-weight="600" text-anchor="middle" fill="#4EFFFF">Browse cards</text>
  </g>
  <text x="1120" y="600" font-family="Poppins, sans-serif" font-size="20" font-weight="500" text-anchor="end" fill="#5C6770">type .menu in WhatsApp</text>
</svg>
